# xmcd
# 
# Track frame offsets:
#     150
#     16995
#     31347
#     49570
#     62100
#     87900
#     102800
#     125712
#     140515
#     163977
#     183755
#     202787
#     220752
# 
# Disc length: 3229
# 
# Revision: 1
# Processed by: cddbd v1.5.2PL0 Copyright (c) Steve Scherf et al.
# Submitted via: fre:ac v1.0.27
# 
DISCID=ad0c9b0d
DTITLE=Amy Speace - Songs For Bright Street
DYEAR=2006
DGENRE=American Folk
TTITLE0=Step Out of the Shade
TTITLE1=Water Landing
TTITLE2=Not the Heartless Kind
TTITLE3=Two
TTITLE4=Shed This Skin
TTITLE5=The Real Thing
TTITLE6=Make Me Lonely Again
TTITLE7=Dreaming
TTITLE8=Row Row Row
TTITLE9=Right Through to Me
TTITLE10=Can`t Find a Reason to Cry
TTITLE11=Double Wide Trailer
TTITLE12=Home
EXTD=
EXTT0=
EXTT1=
EXTT2=
EXTT3=
EXTT4=
EXTT5=
EXTT6=
EXTT7=
EXTT8=
EXTT9=
EXTT10=
EXTT11=
EXTT12=
PLAYORDER=
